<svg xmlns="http://www.w3.org/2000/svg" width="210" height="257" viewBox="0 0 210 257"><path fill="#f6eee7" d="M62 8c3.9 3.6 5.3 7.8 6 13v9l3.8-.1c41.4-1 41.4-1 55.6-1h2.8q6.5-.1 12.8 1.1l-.1-2.1c-.3-7.7.7-14 5.9-20A16 16 0 0 1 158 7c3.8 2 5.3 4.2 6.8 8.1q2 7.3 2.2 14.9l3.7-.1c9.5 0 19.8.7 27.3 7.1 5.7 7.7 5.2 16.9 5.1 26.1v9.2q-.2 4-1.1 7.7l2 1h-2l.2 2.9q1 16.9.8 33.8-.2 26.5.5 52.9l.1 5.6.2 7.8.1 4.8.2 6.1c.8 34.3.8 34.3-8.8 45-13.1 12.6-34.9 10.2-51.8 10.6l-6.7.2q-28.3.6-56.6-.1l-10.2-.2c-40.5-.7-40.5-.7-49-6.4v-2l-1.8-.7c-5.3-3.1-8.3-10.1-10.6-15.7Q7.4 217.4 7 209l-.1-2.6c-.8-15.1-1.3-30.2-.5-45.4q1-22.5.7-44.9v-10.4q.3-19.2-.9-38.5-.3-5.9.1-11.8l.3-3.8C7.4 44.7 8.9 39.9 14 35a42 42 0 0 1 23.8-4H44l-.1-3.6c0-4 .7-7.4 1.9-11.2l.9-3.3C48.1 9.8 49.1 8.7 52 7c4.1-1.4 6-.5 10 1"/><path fill="#f1e7de" d="m45 33-.1 1.9-.2 8.8-.1 3c-.2 7.5-.2 7.5 2.7 11.5 3.5 2.4 5.5 2.4 9.7 1.8 4.6-2.2 4.6-2.2 6-5 .3-3.3.3-3.3 0-7l-2-2.3C59 43 59 43 59 33h93c-1 11-1 11-4 14-.6 4.9-.8 6.9 2.1 11 3.6 2.5 5.6 2.6 9.9 2 2.6-.9 3.6-1.5 5.2-3.8q1.7-5.1.2-10.4c-.6-4.3.1-8.5.6-12.8l9.5.2 2.7.1c7.3.3 12.9 1.9 18.2 7 4.3 7.2 3.8 14.5 3.7 22.6v3.6L200 75a50 50 0 0 1-20.3 3.4l-3.3.1h-10.9l-7.7.1-16.4.1-24.3.1q-53.5.3-107.1.2V64.8c0-20.1 0-20.1 3.4-24.9C21.1 32.4 34.9 33 45 33"/><path fill="#987767" d="M62 8c3.9 3.6 5.3 7.8 6 13v9l3.8-.1c41.4-1 41.4-1 55.6-1h2.8q6.5-.1 12.8 1.1l-.1-2.1c-.3-7.7.7-14 5.9-20A16 16 0 0 1 158 7c3.8 2 5.3 4.2 6.8 8.1q2 7.3 2.2 14.9l3.7-.1c9.5 0 19.8.7 27.3 7.1 5.7 7.7 5.2 16.9 5.1 26.1v9.2q-.2 4-1.1 7.7l2 1h-2l.2 2.9q1 16.9.8 33.8-.2 26.5.5 52.9l.1 5.6.2 7.8.1 4.8.2 6.1c.8 34.3.8 34.3-8.8 45-13.1 12.6-34.9 10.2-51.8 10.6l-6.7.2q-28.3.6-56.6-.1l-10.2-.2c-40.5-.7-40.5-.7-49-6.4v-2l-1.8-.7c-5.3-3.1-8.3-10.1-10.6-15.7Q7.4 217.4 7 209l-.1-2.6c-.8-15.1-1.3-30.2-.5-45.4q1-22.5.7-44.9v-10.4q.3-19.2-.9-38.5-.3-5.9.1-11.8l.3-3.8C7.4 44.7 8.9 39.9 14 35a42 42 0 0 1 23.8-4H44l-.1-3.6c0-4 .7-7.4 1.9-11.2l.9-3.3C48.1 9.8 49.1 8.7 52 7c4.1-1.4 6-.5 10 1M13.4 39.9C8 47.5 10 59.1 10 67.9V79q55.6 0 111.1-.2l22.4-.2 18.2-.1h7.6l10.4-.1h3.1c6.2 0 11.4-1 17.2-3.4l.2-11.9.1-3.4c0-7.5 0-15-5.2-20.9l-2.1-1.3-2.1-1.4a19 19 0 0 0-9.6-2.4l-2.7-.1-2.8-.2-2.8-.1-7-.3-.6 6.4-.3 3.6c-.1 3-.1 3 .9 5 .3 3.9.3 6.8-2 10-3.4 2.5-6.9 2.5-11 2-2.9-2-4.7-3.4-5.4-7-.1-2.1-.1-2.1.4-6l3-3 1-11H59c0 10.4 0 10.4 4 15 .5 3.8.5 6-1.3 9.4-2.5 2.4-4.7 2.6-8.1 3-3.6-.4-3.6-.4-6.3-2.2-3.4-4.7-2.8-8.9-2.6-14.5l.1-3.1.2-7.6c-24.5 0-24.5 0-31.6 6.9m181.9 39.6c-3.2.7-6.4.6-9.7.6H78.1L10 80l-.1 44.1V172l.1 24v3.4l.3 9.8v3c.2 7.2 1.9 12.5 6.6 18 7.9 6.8 16.3 7.9 26.5 8l3.8.1h4l4.2.1 8.8.1 11.1.2 26.7.3h3.2q14 .3 27.9-.8 6.8-.3 13.6-.3l5.1-.1 7.8-.1c26.6 0 26.6 0 35.1-8.4 5.6-7.4 5.7-14.9 5.6-24v-14.1l-.1-8.6Q200 130.7 199 79c-2 0-2 0-3.7.5"/><path fill="#9f857a" d="M202 51h1l.1 11.7v9.5q-.2 4-1.1 7.8l2 1h-2l.2 2.9q1 16.9.8 33.8-.2 26.5.5 52.9l.1 5.6.2 7.8.1 4.8.2 6.1c.8 34.3.8 34.3-8.8 45-13.1 12.6-34.9 10.2-51.8 10.6l-6.7.2q-28.3.6-56.6-.1l-10.2-.2c-40.5-.7-40.5-.7-49-6.4v-2l-3-1 2-2-3-5 1.9.8 7.5 2.8 2.2.7a60 60 0 0 0 17.4 1.8h47.3c38.5.1 38.5.1 57.7-.5l3.7-.1 3.3-.1 2.8-.1c2.2-.3 2.2-.3 4.2-2.3l5.2-.3a68 68 0 0 0 14.8-2.9l3.8-1.3c5.4-2.6 7.5-6.4 9.6-12 1.2-5 1-10 .9-15.1v-14.1l-.1-8.7Q199 130.3 198 78l3-1z"/><path fill="#e8a765" d="M95 122c3.5 2.4 5.6 4.9 7 9v7l2.9-2c4.3-2.4 8.3-2.8 13.1-2l3 2v2h2c.5 8.9.5 8.9-3 13q-3.4 2.7-7 5l2.4 2.4c3.8 3.8 3.8 3.8 3.9 7.8 0 3.6-.2 4.7-2.2 7.8-3.3 3.1-5.5 3.3-10.1 3.2-2.9-.3-4.7-1.4-7-3.2l-2-3-.7 1.6c-2.2 5-4.1 8.1-9.3 10.4-3.2.3-5.9.1-9-1-2.6-2.4-2.6-2.4-4-6-.2-5 .2-8.8 3-13l-3.1.3c-5.1-.4-6.4-1.7-9.9-5.3-2.3-3.2-2.6-6.1-2-10 2.6-3.1 4.2-4.7 8-6l4.6-.1h2.3c2.1.1 2.1.1 4.1 1.1l-1-1.5c-1.9-4.8-1.5-9.1.2-13.8 3.5-5.3 7.4-7.2 13.8-5.7"/><path fill="#8f7265" d="M199 44c3.1 3.1 3.1 5.9 3.1 10.1v15.3c-.3 6.8-.3 6.8-2.9 9.4-4.4 2.4-8.6 2.3-13.5 2.3H17c-4.8 0-4.8 0-7-1.1l.1 2.7q.9 28.9.9 57.7v26.9c-.1 28.6-.1 28.6.2 42.4l.1 2.9c.2 6.8 2 12.1 6.4 17.4 7.5 6.2 16.2 7.1 25.7 7.2l3.8.1h4l4.2.1 8.8.1 11.1.2 38.3.4h2.4q6.4 0 13-.6c12-.9 24-.6 36-.5v1l10 1v1q-42.7 1.2-85.5 1.2l-16.1.1H54.9c-26 .2-26 .2-36.9-6.3l3 4-1 2c-5.5-2.2-7.4-7-10-12-2.5-6.4-2.6-13.2-3-20l-.1-2.6c-.8-15.1-1.3-30.2-.5-45.4q1-22.5.7-44.9v-10.4q.3-19.2-.9-38.4-.3-6.2.2-12.4l.2-2L7 48h1v31l9.1-.2 13.8-.2 3.8-.1q30.5-.6 61.1-.7l12.4-.1h10.4l25.1-.2 18.1-.1h7.5l10.4-.1h8.5q6-.8 11.8-2.3z"/><path fill="#a18170" d="M158 7c3.8 2 5.3 4.2 6.8 8.1q2 7.3 2.2 14.9l3.7-.1c9.5 0 19.8.7 27.3 7.1 1.9 2.5 3.3 4.9 4 8-.4 2.2-.4 2.2-1 4l-1-3-2 1-1.1-3.2c-1.7-4.1-4.1-5.7-7.9-7.8-2.7-.9-4.4-1.2-7.2-1.3l-2.4-.1-5-.2-2.4-.1-2.2-.1C168 34 168 34 166 33l-.1 6.4V43c.1 3 .1 3 1.1 5 .4 4.6-.1 7.3-3 11-3.4 2.6-6.8 2.4-11 2a15 15 0 0 1-6-6c-.4-5.8-.4-5.8 0-8l3-3 2-11h-32v-1l-53-1V21h1v9l3.8-.1c41.4-1 41.4-1 55.6-1h2.8q6.5-.1 12.8 1.1l-.1-2.1c-.3-7.7.7-14 5.9-20A16 16 0 0 1 158 7"/><path fill="#e9d9cd" d="M195 233c-.7 1.9-.7 1.9-2 4-2.4 1-2.4 1-5.1 1.8l-2.8.7-2.1.5h6c-7.2 5.7-14.5 6.1-23.5 6.6l-2.5.1q-15.7.6-31.5.4H73.2q-15.2.1-30.3-.5l-2.2-.1A48 48 0 0 1 25 243v-3l-2.9-1.3C19 237 19 237 17 234l1.9.8 7.5 2.8 2.2.7a59 59 0 0 0 17.2 1.8h43.3l43.9-.1h3l17.5-.2 5.3-.1c12.3-.1 25.3-6.7 36.2-6.7"/><path fill="#8f6d5d" d="M199 44c3.1 3.1 3.1 5.9 3.1 10.1v15.3c-.3 6.8-.3 6.8-2.9 9.4-4.4 2.4-8.4 2.3-13.4 2.3H81.9L16 81v-1a64 64 0 0 1 13.8-1.3l2.6-.1 8.9-.1 3.2-.1q27.7-.5 55.6-.6l4-.1 36.7-.2 20.4-.1h7.7l10.6-.1h8.6q6-.8 11.9-2.3z"/><path fill="#f1e2d7" d="M195 233c-.7 1.9-.7 1.9-2 4-2.4 1-2.4 1-5.1 1.8l-2.8.7-2.1.5h6c-14.4 11.3-41.5 7.2-58.8 7.1h-11.3q-23.5 0-46.9-1.1v-1l31-1-7-1v-1h26v1h-17v2l31-2-8-1v-1c4.7-1.2 9.3-1.2 14.1-1.2h5.5l8.6-.1c13.2-.1 27.1-6.7 38.8-6.7"/><path fill="#979974" d="M129 158h4c3.8 4.2 3.7 9.6 4 15l2.8-2.4c4.6-3.9 8.2-3.8 14.2-3.6l2 1c.4 2.6.4 2.6 0 6a22 22 0 0 1-13 8l-2.6.1c-7.7.3-7.7.3-10 2.4q-1.3 1.8-2.4 3.8a11 11 0 0 1-6 4.7c-2.2-.4-2.2-.4-4-1l1.6-1.2 2.2-1.6 2.2-1.6c3.6-2.8 3.6-2.8 5-4.6-.2-3.3-.5-6-2-8.9a20 20 0 0 1-1-11.1c1.2-3.1 1.2-3.1 3-5"/><path fill="#d3a782" d="M154.6 9.3c3.4.8 3.4.8 5.2 2.3 2.5 5 3.6 9.5 4 15l.1 2c.3 7.4.2 16-3.9 22.4-3 .9-3 .9-6 1-1.9-1.9-1-4.5-1.2-7 .2-2 .2-2 1.2-5 .4-7.9.4-15.4-2-23-3 2.4-3.6 4.4-4.2 8.1l-.5 2.8q0 1.1-.3 2.2h-2c.1-7 .4-13 4.4-18.8 1.6-1.2 1.6-1.2 5.2-2"/><path fill="#cfa37e" d="M55.9 9.6c3 .4 3 .4 5.4 2.3a34 34 0 0 1 3.7 18h-2l-.2-1.7-.2-2.5-.3-2.4C62 21 62 21 61 18h-3q-1.2 7.4-1.2 14.9v2A54 54 0 0 0 59 50q-1 1.2-2 2c-3.6-.2-3.6-.2-7-1a67 67 0 0 1-2.3-19.4v-3c0-6.2.7-10.8 3.3-16.5 2-2 2-2 4.9-2.4"/><path fill="#865f4e" d="M63 14h2v3h2v14h58v1c-21.2 4.6-44.6 2-66 1v12h-2c-1.3-3.9-1.2-7.8-1.2-11.8v-2.1c0-4.7.7-8.6 2.2-13.1h3c2.1 3.2 2.2 4 2.1 7.7v2.4L63 30h2z"/><path fill="#b9a399" d="M202 51h1l.1 11.7v9.5q-.2 4-1.1 7.8l2 1h-2l.2 3.1q1 16 .9 32v17.8l-.1 13.3V173h-1l-2-34h-1l-1-61 3-1z"/><path fill="#bd875a" d="M82 140c2.5 2.2 3.4 3.7 4 7l-2.5-1a21 21 0 0 0-14.4.1C67 148 67 148 66 150.9c0 3.6.8 5.2 3 8.1 2.8 1.4 5 1.1 8.1 1.1l3.3-.1H83l-3.6 6.9A14 14 0 0 0 78 176c1.1 2.4 1.1 2.4 3 4 3.4.6 3.4.6 7 0 5-4.1 7.2-7.7 8-14h2l2.5 3.4c2.3 3.5 2.3 3.5 4.5 4.6 7.3.2 7.3.2 11-1 .4-9.4.4-9.4-2-14 3.9 1.9 3.9 1.9 5 3 .6 4.6.6 8-1.9 12-3.3 3.1-5.5 3.3-10.1 3.2-2.9-.3-4.7-1.4-7-3.2l-2-3-.7 1.6c-2.2 5-4.1 8.1-9.3 10.4-3.2.3-5.9.1-9-1-2.6-2.4-2.6-2.4-4-6-.2-5 .2-8.8 3-13l-3.1.3c-5.1-.4-6.4-1.7-9.9-5.3-2.3-3.2-2.6-6.1-2-10 2.6-3.1 4.2-4.7 8-6l4.6-.1h2.3c2.1.1 2.1.1 4.1 1.1z"/><path fill="#b8a49a" d="m20 238 5 1v3a65 65 0 0 0 19.9 3.7l2.8.2 8.4.3 5.8.2 14.1.6v2h19v1l-17.9.1h-6c-40.7.1-40.7.1-50.1-6.1v-2l-3-1 2-2z"/><path fill="#9e8277" d="M200 212h2c.3 8.1.4 17.5-3.8 24.7-2.4 2.6-3.7 3.1-7.2 3.3 0-3 0-3 2-5.2l2-1.8-1.5.8-2.1 1.1-2 1a39 39 0 0 1-18.3 3.2h-2.4l-5.7-.1c2.6-2.6 3.6-2.2 7.2-2.3a68 68 0 0 0 14.8-2.9l3.8-1.3c4.2-2 6.1-4.4 8.2-8.5q2.2-5.9 3-12"/><path fill="#d9c6b9" d="M195 233c-.7 1.9-.7 1.9-2 4-2.4 1-2.4 1-5.1 1.8l-2.8.7-2.1.5 1 2c-5.8 1.4-11.8 1.4-17.7 1.6q-6.2.2-12.3 1.4l-5.8.1-3-.1H143v-3l-10-1v-1h3.6l13.5-.2 5.8-.1c13.3-.1 27.3-6.7 39.1-6.7"/><path fill="#8a6655" d="M164 30h1l.2 3.4.2 4.5.2 2.2c.3 5.7.3 5.7 1.4 7.9.4 4.6-.1 7.3-3 11-3.4 2.6-6.8 2.4-11 2a15 15 0 0 1-6-6v-6l2-1 .8 3.4C151 55 151 55 154 57c2 .2 2 .2 4.2.1l3.8-.1 1-6-1.6 1.5c-3.2 2-5.6 1.8-9.4 1.5-1-1-1-1-1.1-2.8l.1-6.2 2-1 1 7h6c2.3-6.8 3.1-13.9 4-21"/><path fill="#bda89e" d="M7 48h1v31h13v1l-4.4.6-2.4.3C12 81 12 81 10 80v2.4l-.3 22.3-.2 11.5Q9.4 141.7 8 167H7v-3.2l.1-29.6V98.7q.1-14.7-.8-29.2-.5-7.4.1-14.6l.2-2z"/><path fill="#e7d5c9" d="M16 81h50v1h-5l-1 3H22l1-3-3 1z"/><path fill="#a1857a" d="M165 237v1l10 1v1c-45.2 1.2-45.2 1.2-66 1l-1-2q28.5-2.4 57-2"/><path fill="#9c7c6b" d="M79 78v1l32 1v1H16v-1q4.8-1 9.8-1.2l2.8-.1h3l3.2-.1 9.9-.2 6.6-.1Q65.1 78 79 78"/><path fill="#aa9085" d="M165 20h1l1 10 3.7-.1c9.5 0 19.8.7 27.3 7.1 1.9 2.5 3.3 4.9 4 8-.4 2.2-.4 2.2-1 4l-1-3-2 1-1.1-3.2c-1.7-4.1-4.1-5.7-7.9-7.8-2.7-.9-4.4-1.2-7.2-1.3l-2.4-.1-5-.2-2.4-.1-2.2-.1C168 34 168 34 166 33v10h-1z"/><path fill="#ae6836" d="M95.6 147c3.4 1 3.4 1 5.4 4-.2 3.5-.4 5.4-2.7 8-3.2 1.4-5 1-8.3 0-2-2-2-2-2.4-4.8.4-3.2.4-3.2 2-5.6 2.4-1.6 2.4-1.6 6-1.5"/><path fill="#9c857b" d="M76 247q25.5-.2 51 1l-4 1v2l-9.5.1h-2.7q-6.9 0-13.8-.8-6-.7-12-.9l-2.6-.1-6.4-.3z"/><path fill="#f9ebe2" d="M96 242h26v1h-17v2l1.9-.1 8.3-.5 3-.1 2.8-.2 2.6-.1q3.3 0 6.4 1c-2 2-2 2-4.7 2.2h-15.6Q90.9 247 72 246v-1l31-1-7-1z"/><path fill="#c8976f" d="M158 33h2l-1 7h4c-1 8.5-1 8.5-3 11-3.1.8-3.1.8-6 1-1.9-1.9-1.1-4.5-1.1-7 .1-2 .1-2 1.1-5h2l-.1-2.4c.1-2.6.1-2.6 2.1-4.6"/><path fill="#959673" d="M156 168c.4 2.6.4 2.6 0 6a44 44 0 0 1-7 6l-.4-1.9c-.6-2.1-.6-2.1-2.7-3.3l-1.9-.8v-2l-4 1v-3c5.1-2.5 10.4-4.8 16-2"/><path fill="#c08a5d" d="M100 132h1v7l2.3-1.9c3.5-2.7 6-3.3 10.2-3.3h2.3c2.2.2 2.2.2 5.2 2.2v2h2c.5 8.9.5 8.9-3 13q-3.4 2.7-7 5l1 2-6-1-1-3 1.8-.5c4-1.1 6.7-2 9.8-4.8 1.7-3.3 2-5.1 1.4-8.7-2-3-3.3-3.8-6.8-4.6-4 .8-6.2 2.6-9.4 5.2C102 142 102 142 99 143z"/><path fill="#8f7266" d="M72.2 237.8h23.3c4.9 0 8.9.6 13.5 2.2v1l-55-1v-1a139 139 0 0 1 18.2-1.2"/><path fill="#e8d6c9" d="M197 65v3c-3 2.2-3 2.2-6 4 1.4-3.4 3-5 6-7m2 1h1v9c-9.4 3.4-9.4 3.4-15 3v-2l-2-1c1.6-2.1 1.6-2.1 4-4l6 1c2.8-1.2 2.8-1.2 5-3z"/><path fill="#a2887b" d="M191 237v3l3 1c-8.9 8.4-19.6 7.4-31 7 4.5-2.7 9.4-2.8 14.6-3.3 3.4-.7 5.5-1.7 8.4-3.7h-5q4.1-4 10-4"/><path fill="#846152" d="M199 44c3.1 3.1 3.1 5.9 3.1 10.1v15.3c-.3 6.8-.3 6.8-2.8 9.4a14 14 0 0 1-8.1 1.4l-2.9-.1-2.3-.1c2-2 2-2 14-5z"/><path fill="#ddc7ba" d="m17 234 1.9.8 7.5 2.8 2.2.7c5.5 1.6 11.1 1.9 16.8 2.3l2.2.1 5.4.3v1l-6 1v1c-18.2.5-18.2.5-22.6-3.4L23 239l-2.6-1.6C18 236 18 236 17 234"/><path fill="#b6a197" d="M9 167h1l.1 11.9v13.4C10 195 10 195 9 196l-.6 6.6-.2 3.6L8 209H7q-1.2-20-1-40h1v14h2z"/><path fill="#8f6d5d" d="M92 31h33v1c-13.4 2.9-27.4 2.1-41 2v-1h8z"/><path fill="#997e71" d="m9 195 2 1 .1 11.6v9.5q-.2 4.4-1.1 8.9c-4.9-8.5-3.2-20.6-2-30z"/><path fill="#f5e7dd" d="M195 233c-.6 1.9-.6 1.9-2 4-13.6 6.4-30.4 5.2-45 5l1-2h2.1c14.7-.3 30.8-7 43.9-7"/><path fill="#bfaaa2" d="m20 238 5 1v3l10 3v2l14 1v1c-19.4.7-19.4.7-28-5v-2l-3-1 2-2z"/><path fill="#a7a886" d="M129 158h4c3 3.7 3.3 6.6 3.2 11.3l-.1 3.3-.1 2.4h-1l-.4-2.3c-.8-3.4-2.2-5.3-4.6-7.7l-2 4c-1.2-2.7-1.2-2.7-2-6 1.1-2.9 1.1-2.9 3-5"/><path fill="#bb865a" d="M95 122c3.1 2.2 3.1 2.2 5 5-.2 2.3-.2 2.3-1 4l-.8-1.9C97 127 97 127 94 125c-3.4-.4-5.3-.4-8.2 1.4-2.6 3.9-3.1 8-3.8 12.6h-2c-.3-6.5.1-10.8 4.7-15.9q5-2.3 10.3-1.1"/><path fill="#c49369" d="M114 159c3.9 1.9 3.9 1.9 5 3 .6 4.6.6 8-1.9 12-3.3 3.1-5.5 3.3-10.1 3.2-2.9-.3-4.7-1.4-7-3.2v-2l2 1a21 21 0 0 0 14 0c.4-9.4.4-9.4-2-14"/><path fill="#cf8552" d="M92 149c2.5-.3 2.5-.3 5 0l2 2c-.3 3.3-.6 4.6-3 7-2.6-.4-2.6-.4-5-1-.6-2.3-.6-2.3-1-5z"/><path fill="#dac7bb" d="M57 243h17l-1 2 24 1v1H67v-1l-1.9-.1-2.5-.3-2.5-.2-2.1-.4z"/><path fill="#83563d" d="m58 18 3 1-1 3.4a51 51 0 0 0-1.1 14.1V39l.1 6h-2c-1.3-3.9-1.2-7.8-1.2-11.8v-2.1c0-4.7.7-8.6 2.2-13.1"/><path fill="#c3afa5" d="M165 20h1l1 10 3.9-.1Q178 30 185 31v1l-10 1v1c-6.8.1-6.8.1-9-1v10h-1z"/><path fill="#e8dad1" d="m46 49 1.4 2c3.7 2.9 7.1 2.3 11.6 2l1-2h2c-1.1 2.9-1.8 4.8-4 7-4.5.6-6.3.5-9.9-2.2C46 53 46 53 46 49"/><path fill="#f1e9e4" d="m149 50 1.1 1.5c2.9 2.3 5.2 1.9 8.9 1.5 2.9-1.5 2.9-1.5 5-3-.4 2.6-.7 4.6-2.2 6.8-2.7 1.8-4.6 1.7-7.8 1.2-2.9-1.8-2.9-1.8-5-4z"/><path fill="#92766b" d="m76 247 11.2-.1 3.3-.1h5.9c2.7.2 4.3.8 6.6 2.2v1l-27-1z"/><path fill="#8f6b58" d="m59 43 1 2 3 1-1 5h-2l-1 3-4.4.2-2.4.1L50 54l-2-3 2-3v3h7a55 55 0 0 0 2-8"/><path fill="#826053" d="M200 212h2c.2 6.6-.5 12.5-2 19h-2v-2l-2-1z"/><path fill="#b3b199" d="m130 179 2 1 5.6.6 3.1.2 2.3.2v1h-2.2c-7.9.2-7.9.2-10.5 2.5l-2.3 3.8a11 11 0 0 1-6 4.7c-2.2-.4-2.2-.4-4-1l1.6-1.2 2.2-1.6 2.2-1.6c3.3-2.6 5.3-4.3 6-8.6"/><path fill="#be8251" d="M121 139h1a24 24 0 0 1 0 10q-3.9 4.2-9 7l1 2-6-1-1-3 1.8-.5c3.9-1.1 6.7-2 9.7-4.7 1.8-3.3 2.2-6.1 2.5-9.8"/><path fill="#a97752" d="M150 17h2l1 3h-2l1 11-5-1c-.3-5.3.3-8.4 3-13"/><path fill="#ebdacf" d="M189 241a40 40 0 0 1-22 5v-1l-8-1v-1l1.7-.1 7.9-.3 2.7-.1q6 0 11.7-1.6c3-.9 3-.9 6 .1"/><path fill="#efddd0" d="M75 81h21l-4 4-1-2-5.9.4-3.3.3C79 84 79 84 77 85l-2-1z"/><path fill="#87695c" d="M10 220h2c4.1 7.1 4.1 7.1 3.8 11l-.8 2h-3a14 14 0 0 1-2.1-8.8v-2.4z"/><path fill="#8f7164" d="M186 235v2a34 34 0 0 1-14.9 2.1h-2.3l-5.8-.1c2.3-2.3 3.1-2.3 6.3-2.6l2.5-.3 2.7-.2 2.7-.3c6.3-.6 6.3-.6 8.8-.6"/><path fill="#805744" d="m46 36 2 1c1.1 4.7 1.1 9.2 1 14l-2-1-2 4-1-7 1-1 .6-5.1.2-2.7z"/><path fill="#ad9282" d="m158 7 2 2c-1 1-1 1-4.9 1.2-2.2.3-2.2.3-4.1.8-1.9 2.6-1.9 2.6-3 5h-2c-.3-2.2-.3-2.2 0-5 3.7-4.1 6.6-4.6 12-4"/><path fill="#ac958b" d="M33 246h20l1 3-9.4-.4-2.7-.1-2.5-.1-2.4-.1c-2-.3-2-.3-4-2.3"/><path fill="#b17e5b" d="m60 19 3 2c.3 2.2.3 2.2.2 4.6l-.1 2.5L63 30l2 1h-6l-.1-4.3v-2.4C59 22 59 22 60 19"/><path fill="#f8e9df" d="M61 241h28l-1 3h-8l-1-1-4-.3-2.5-.1-2.6-.2-2.6-.1-6.3-.3z"/><path fill="#94786d" d="m32 236.3 2.8.3c2.2.5 2.2.5 4.2 2.5l4 2c-6.5-.5-12.7-1-19-3 3.4-2.3 4.2-2.2 8-1.8"/><path fill="#eddace" d="m187 81-2 3v-2h-2v3l-2.2-.1c-2.8.1-2.8.1-5 .7-1.8.4-1.8.4-3.8-.6l1-3q7-1.1 14-1"/><path fill="#eeded3" d="M89 241h9v1l6 1-1 2q-7.5.3-15-1z"/><path fill="#87695b" d="M44 52c3 1 3 1 4.9 3 2.4 2.3 3.9 2.6 7.1 3l1 3c-4 .3-6.4.4-9.9-1.7-2.3-2.5-2.8-3.9-3.1-7.3"/><path fill="#af9991" d="M155 246h12v1l8 1v1h-21z"/><path fill="#efe0d5" d="M195 233c-.6 1.9-.6 1.9-2 4-3.1 1.3-3.1 1.3-6.9 2.2l-3.7 1.1c-3.4.7-3.4.7-7.4.7v-2l3.2-.8 4.1-1.1 2.1-.5c3.6-.9 7.1-3.6 10.6-3.6"/></svg>